<?xml version="1.0" encoding="UTF-8" standalone="no"?>
<svg
   width="88.759476cm"
   height="35.630341cm"
   viewBox="0 0 3354.6888 1346.6585"
   version="1.1"
   id="svg2"
   sodipodi:docname="logo.svg"
   xml:space="preserve"
   inkscape:version="1.4.2 (ebf0e940d0, 2025-05-08)"
   xmlns:inkscape="http://www.inkscape.org/namespaces/inkscape"
   xmlns:sodipodi="http://sodipodi.sourceforge.net/DTD/sodipodi-0.dtd"
   xmlns="http://www.w3.org/2000/svg"
   xmlns:svg="http://www.w3.org/2000/svg"><defs
     id="defs2"><inkscape:path-effect
       effect="mirror_symmetry"
       start_point="1828,1423"
       end_point="1828,1488"
       center_point="1828,1455.5"
       id="path-effect28"
       is_visible="true"
       lpeversion="1.2"
       lpesatellites=""
       mode="free"
       discard_orig_path="false"
       fuse_paths="false"
       oposite_fuse="false"
       split_items="false"
       split_open="false"
       link_styles="false" /><inkscape:path-effect
       effect="mirror_symmetry"
       start_point="2440,1472.6836"
       end_point="2440,1827.3164"
       center_point="2440,1650"
       id="path-effect20"
       is_visible="true"
       lpeversion="1.2"
       lpesatellites=""
       mode="free"
       discard_orig_path="false"
       fuse_paths="false"
       oposite_fuse="false"
       split_items="false"
       split_open="false"
       link_styles="false" /><inkscape:path-effect
       effect="mirror_symmetry"
       start_point="3345,-487.5"
       end_point="3345,-422.5"
       center_point="3345,-455"
       id="path-effect18"
       is_visible="true"
       lpeversion="1.2"
       lpesatellites=""
       mode="free"
       discard_orig_path="false"
       fuse_paths="false"
       oposite_fuse="false"
       split_items="false"
       split_open="false"
       link_styles="false" /><inkscape:path-effect
       effect="mirror_symmetry"
       start_point="3345,-145"
       end_point="3345,-75"
       center_point="3345,-110"
       id="path-effect16"
       is_visible="true"
       lpeversion="1.2"
       lpesatellites=""
       mode="free"
       discard_orig_path="false"
       fuse_paths="false"
       oposite_fuse="false"
       split_items="false"
       split_open="false"
       link_styles="false" /><inkscape:path-effect
       effect="mirror_symmetry"
       start_point="3345,-262.5"
       end_point="3345,-77.5"
       center_point="3345,-170"
       id="path-effect15"
       is_visible="true"
       lpeversion="1.2"
       lpesatellites=""
       mode="free"
       discard_orig_path="false"
       fuse_paths="false"
       oposite_fuse="false"
       split_items="false"
       split_open="false"
       link_styles="false" /><inkscape:path-effect
       effect="mirror_symmetry"
       start_point="3345,-260"
       end_point="3345,-565"
       center_point="3345,-412.5"
       id="path-effect14"
       is_visible="true"
       lpeversion="1.2"
       lpesatellites=""
       mode="free"
       discard_orig_path="false"
       fuse_paths="false"
       oposite_fuse="false"
       split_items="false"
       split_open="false"
       link_styles="false" /><rect
       x="860"
       y="1145"
       width="195"
       height="155"
       id="rect10" /><rect
       x="895"
       y="1235"
       width="235"
       height="110"
       id="rect9" /><rect
       x="895"
       y="1235"
       width="160"
       height="20"
       id="rect1" /><rect
       x="860"
       y="1145"
       width="195"
       height="155"
       id="rect10-4" /><inkscape:path-effect
       effect="mirror_symmetry"
       start_point="1828,1423"
       end_point="1828,1488"
       center_point="1828,1455.5"
       id="path-effect28-0"
       is_visible="true"
       lpeversion="1.2"
       lpesatellites=""
       mode="free"
       discard_orig_path="false"
       fuse_paths="false"
       oposite_fuse="false"
       split_items="false"
       split_open="false"
       link_styles="false" /><inkscape:path-effect
       effect="mirror_symmetry"
       start_point="1828,1423"
       end_point="1828,1488"
       center_point="1828,1455.5"
       id="path-effect28-6"
       is_visible="true"
       lpeversion="1.2"
       lpesatellites=""
       mode="free"
       discard_orig_path="false"
       fuse_paths="false"
       oposite_fuse="false"
       split_items="false"
       split_open="false"
       link_styles="false" /></defs><sodipodi:namedview
     id="namedview2"
     pagecolor="#ffffff"
     bordercolor="#000000"
     borderopacity="0.25"
     inkscape:showpageshadow="2"
     inkscape:pageopacity="0.0"
     inkscape:pagecheckerboard="0"
     inkscape:deskcolor="#d1d1d1"
     inkscape:zoom="3.144249"
     inkscape:cx="375.44737"
     inkscape:cy="441.75891"
     inkscape:window-width="1920"
     inkscape:window-height="1011"
     inkscape:window-x="0"
     inkscape:window-y="32"
     inkscape:window-maximized="1"
     inkscape:current-layer="svg2"
     showguides="true"
     showgrid="true"
     inkscape:document-units="cm"><inkscape:grid
       id="grid147"
       units="px"
       originx="-585.41956"
       originy="-790.96832"
       spacingx="1"
       spacingy="1"
       empcolor="#0099e5"
       empopacity="0.30196078"
       color="#0099e5"
       opacity="0.14901961"
       empspacing="5"
       enabled="true"
       visible="false" /><sodipodi:guide
       position="878.34159,308.38919"
       orientation="0,-1"
       id="guide19"
       inkscape:locked="false" /></sodipodi:namedview><g
     id="g50"
     inkscape:label="letter_background"
     style="fill:#f7f7f7;fill-opacity:1;stroke:#f7f7f7;stroke-opacity:1"
     transform="translate(-585.41956,-790.96836)"><path
       style="fill:#f7f7f7;fill-opacity:1;stroke:#f7f7f7;stroke-width:10;stroke-linecap:square;stroke-linejoin:bevel;stroke-dasharray:none;stroke-opacity:1"
       d="m 2518.4424,1641.1478 c 0,-96.9887 -1.6869,-174.4178 -3.9737,-182.3913 -5.3939,-18.8077 -19.8114,-39.0491 -33.6264,-47.2098 l -11.4207,-6.7463 v -69.7428 -69.7428 l 24.436,2.7646 c 69.8153,7.8987 132.9888,48.3442 160.5637,102.7976 24.7663,48.907 24.7595,48.8415 26.451,251.915 l 1.5567,186.8917 h -81.9933 -81.9933 z"
       id="path30" /><path
       style="fill:#f7f7f7;fill-opacity:1;stroke:#f7f7f7;stroke-width:37.1042;stroke-linecap:square;stroke-linejoin:bevel;stroke-dasharray:none;stroke-opacity:1"
       d="m 2198.5541,1637.2234 c 0.1453,-194.7522 1.848,-213.4333 23.6345,-259.3094 29.2767,-61.6484 88.5755,-101.1268 166.5275,-110.8663 l 21.2026,-2.6491 v 70.4325 70.4325 l -14.3922,9.5242 c -8.8033,5.8258 -17.8087,16.4635 -23.1901,27.3937 l -8.798,17.8693 -1.0653,175.3174 -1.0653,175.3174 h -81.4916 -81.4916 z"
       id="path31" /><path
       style="fill:#f7f7f7;fill-opacity:1;stroke:#f7f7f7;stroke-width:37.1042;stroke-linecap:square;stroke-linejoin:bevel;stroke-dasharray:none;stroke-opacity:1"
       d="m 2743.8566,1254.5194 v -182.2076 h 77.9188 77.9189 v 164.6345 164.6344 l -22.9761,2.5995 c -21.0259,2.3788 -111.0232,23.6806 -126.3684,29.9106 -6.1317,2.4894 -6.4932,-7.5097 -6.4932,-179.5714 z"
       id="path32" /><path
       style="fill:#f7f7f7;fill-opacity:1;stroke:#f7f7f7;stroke-width:37.1042;stroke-linecap:square;stroke-linejoin:bevel;stroke-dasharray:none;stroke-opacity:1"
       d="m 3032.7998,1739.539 c -27.2916,-39.1307 -52.5835,-75.6688 -56.2042,-81.1958 l -6.5831,-10.0492 23.6047,-23.6236 c 31.9003,-31.9258 41.0097,-55.346 38.7737,-99.6872 -1.9892,-39.4482 -11.6282,-61.2024 -39.075,-88.1881 l -19.8793,-19.5452 12.2919,-14.2715 c 6.7606,-7.8493 33.1631,-37.7915 58.6722,-66.5383 l 46.3803,-52.2669 92.1531,-0.1837 92.1531,-0.1837 -23.8355,28.7557 c -151.5642,182.8514 -173.452,210.2986 -173.4063,217.4501 0.029,4.4933 42.8377,66.5727 98.3262,142.5876 54.0514,74.0462 98.2752,135.4073 98.2752,136.358 0,0.9506 -43.2058,1.7284 -96.013,1.7284 h -96.013 z"
       id="path33" /><path
       style="fill:#f7f7f7;fill-opacity:1;stroke:#f7f7f7;stroke-width:37.1042;stroke-linecap:square;stroke-linejoin:bevel;stroke-dasharray:none;stroke-opacity:1"
       d="m 2743.8566,1719.9696 v -90.716 l 12.7836,5.3413 c 12.6413,5.2819 91.3403,21.517 125.4296,25.8753 l 17.6245,2.2533 v 73.981 73.9811 h -77.9189 -77.9188 z"
       id="path34" /><path
       style="fill:#f7f7f7;fill-opacity:1;stroke:#f7f7f7;stroke-width:37.1042;stroke-linecap:square;stroke-linejoin:bevel;stroke-dasharray:none;stroke-opacity:1"
       d="m 3509.3961,1821.4197 c -89.3446,-10.2701 -141.0772,-60.5817 -159.2127,-154.8393 -4.0594,-21.0983 -5.2386,-67.2427 -5.2386,-205.0008 v -177.7738 h 77.9189 77.9188 l 0.021,160.4757 c 0.014,104.4595 1.4359,165.6564 4.0748,175.3174 8.6406,31.6325 32.4746,51.3514 70.8823,58.644 l 23.3484,4.4332 0.2821,24.1177 c 0.3558,30.4156 9.0515,56.6323 27.537,83.0212 7.9616,11.3655 13.2928,21.3955 11.8471,22.289 -3.2892,2.0328 -55.1137,8.8805 -82.336,10.8791 -11.2241,0.8241 -32.3933,0.1206 -47.0428,-1.5634 z"
       id="path35" /><path
       style="fill:#f7f7f7;fill-opacity:1;stroke:#f7f7f7;stroke-width:37.1042;stroke-linecap:square;stroke-linejoin:bevel;stroke-dasharray:none;stroke-opacity:1"
       d="m 3682.5932,1426.2939 v -142.4881 h 81.6293 81.6292 v 139.4871 139.487 l -36.1766,-3.1291 c -48.3257,-4.1799 -88.0025,-2.8245 -109.4574,3.7393 l -17.6245,5.3919 z"
       id="path36" /><path
       style="fill:#f7f7f7;fill-opacity:1;stroke:#f7f7f7;stroke-width:37.1042;stroke-linecap:square;stroke-linejoin:bevel;stroke-dasharray:none;stroke-opacity:1"
       d="m 3524.9003,2108.8244 c -48.2721,-7.7423 -99.0002,-29.5901 -123.3715,-53.1342 -8.6731,-8.3787 -15.7693,-16.4466 -15.7693,-17.9287 0,-1.4822 23.2327,-25.8831 51.6283,-54.2243 l 51.6284,-51.5296 15.7924,13.5178 c 28.8106,24.6608 72.2131,34.5115 108.1205,24.5391 23.2574,-6.4592 44.327,-25.2708 57.6052,-51.4319 10.5611,-20.8076 12.0589,-27.3741 12.0589,-52.8664 0,-16.0092 0.4174,-29.0896 0.9276,-29.0675 0.5102,0.022 9.124,2.5267 19.1418,5.5657 39.092,11.8589 91.3731,3.6425 126.1452,-19.8249 l 17.0439,-11.5028 -0.064,45.3271 c -0.036,25.498 -2.4606,56.6894 -5.5417,71.3001 -17.2297,81.7019 -79.6291,142.7829 -174.4875,170.8009 -26.7839,7.9111 -42.6424,10.0583 -81.4911,11.0338 -26.5295,0.6661 -53.2445,0.4078 -59.3667,-0.5742 z"
       id="path37" /><path
       style="fill:#f7f7f7;fill-opacity:1;stroke:#f7f7f7;stroke-width:37.1042;stroke-linecap:square;stroke-linejoin:bevel;stroke-dasharray:none;stroke-opacity:1"
       d="m 1737.8913,1830.8753 c -144.7986,-26.2117 -226.9001,-128.5452 -227.5542,-283.6296 -0.2281,-54.0753 4.1437,-75.2247 24.3095,-117.6027 33.0541,-69.4626 101.5646,-119.6224 195.1259,-142.8611 44.2351,-10.9871 129.8273,-11.8 173.6736,-1.6494 113.5165,26.2795 191.9123,92.813 219.2202,186.0496 5.6519,19.2971 6.7169,43.3911 7.995,180.883 l 1.4746,158.6205 h -74.4579 -74.4578 v -9.1455 c 0,-5.4031 -3.0925,-10.8006 -7.5574,-13.1901 -6.2873,-3.3648 -10.0062,-2.1051 -22.1281,7.4956 -42.9127,33.9875 -136.9841,49.2687 -215.6434,35.0297 z m 143.7026,-151.7508 c 25.4143,-12.5605 60.8729,-44.7468 77.864,-70.6786 8.4031,-12.8247 12.6132,-53.6639 8.5153,-82.6006 -2.8649,-20.2294 -6.1661,-28.0028 -18.9041,-44.5136 -18.3429,-23.7758 -47.1716,-48.9344 -68.2654,-59.5749 -8.372,-4.2231 -26.0794,-9.5691 -39.3499,-11.8801 -61.9007,-10.7795 -123.123,22.0902 -150.6888,80.9036 -8.8068,18.7898 -9.9441,25.6723 -9.9441,60.1758 0,34.4328 1.1469,41.406 9.8712,60.0166 34.9435,74.5411 117.9879,104.1878 190.9018,68.1518 z"
       id="path38" /><path
       style="fill:#f7f7f7;fill-opacity:1;stroke:#f7f7f7;stroke-width:37.1042;stroke-linecap:square;stroke-linejoin:bevel;stroke-dasharray:none;stroke-opacity:1"
       d="m 1174.3484,1628.6798 c 0,-152.5369 0.9492,-186.1795 5.863,-207.7836 l 5.863,-25.7778 h 17.5813 c 25.6695,0 53.9027,-9.5724 67.0704,-22.7402 18.4259,-18.4258 23.6269,-31.8957 24.1711,-62.5995 l 0.4933,-27.8281 25.7462,-8.8558 c 20.2861,-6.9777 36.1725,-9.2443 74.9093,-10.6877 l 49.1631,-1.8319 v 72.6976 72.6977 l -23.5301,-2.1973 c -38.3426,-3.5805 -64.0906,8.9312 -77.0359,37.4339 -6.3795,14.0461 -6.8791,27.8607 -6.9547,192.3059 l -0.082,177.1726 h -81.6293 -81.6292 z"
       id="path39" /><path
       style="fill:#f7f7f7;fill-opacity:1;stroke:#f7f7f7;stroke-width:37.1042;stroke-linecap:square;stroke-linejoin:bevel;stroke-dasharray:none;stroke-opacity:1"
       d="m 826.39448,1464.6888 1.02948,-52.8735 20.40732,-7.0483 c 15.45398,-5.3376 34.59185,-7.4716 78.84645,-8.7918 l 58.43914,-1.7434 v 61.6653 61.6652 H 905.24093 825.365 Z"
       id="path40" /><path
       style="fill:#f7f7f7;fill-opacity:1;stroke:#f7f7f7;stroke-width:37.1042;stroke-linecap:square;stroke-linejoin:bevel;stroke-dasharray:none;stroke-opacity:1"
       d="m 863.91001,1218.8746 c -40.40804,-8.7851 -38.34126,-5.1098 -38.34126,-68.181 0,-84.4285 13.76341,-128.2845 52.21202,-166.36947 41.32417,-40.93335 103.63412,-60.88191 217.72113,-69.70352 l 30.611,-2.36695 v 72.44008 72.44006 l -12.0589,1.9262 c -6.6324,1.0593 -24.5815,3.6941 -39.887,5.8549 -47.7109,6.736 -71.3193,23.7236 -81.86448,58.9063 -2.21276,7.3826 -4.96395,33.0418 -6.11375,57.0204 l -2.09055,43.5974 -48.65376,-0.2949 c -26.75957,-0.1623 -58.95007,-2.5335 -71.53445,-5.2695 z"
       id="path41" /><path
       style="fill:#f7f7f7;fill-opacity:1;stroke:#f7f7f7;stroke-width:37.1042;stroke-linecap:square;stroke-linejoin:bevel;stroke-dasharray:none;stroke-opacity:1"
       d="m 713.3622,1386.3127 c -31.40648,-11.6262 -48.99648,-31.4725 -55.5387,-62.6628 -3.67721,-17.5312 -3.35012,-22.8426 2.32122,-37.6928 8.5273,-22.3285 21.56408,-37.5901 40.66405,-47.6037 24.01508,-12.5904 50.50726,-10.2679 108.06308,9.4737 26.52951,9.0996 54.07939,17.7909 61.22195,19.314 8.36293,1.7834 17.38271,7.8849 25.33448,17.1378 l 12.34799,14.3686 h 111.77453 111.7744 l 11.6832,-11.3238 c 11.3783,-11.0283 12.1363,-11.2097 29.0516,-6.9504 19.0497,4.7968 28.2613,14.5164 28.2613,29.82 0,14.0466 -10.5822,25.3213 -27.8282,29.6491 -8.1629,2.0484 -79.0634,5.3496 -157.5566,7.3358 l -142.71496,3.6115 -55.20912,18.3718 c -63.37769,21.09 -83.85612,24.4786 -103.65022,17.1512 z"
       id="path43" /><path
       style="fill:#f7f7f7;fill-opacity:1;stroke:#f7f7f7;stroke-width:37.1042;stroke-linecap:square;stroke-linejoin:bevel;stroke-dasharray:none;stroke-opacity:1"
       d="m 641.67989,1778.2194 c 1.38046,-17.8564 4.88454,-40.9588 7.78686,-51.3388 5.94665,-21.2677 20.09267,-35.9672 79.14035,-82.2363 l 34.32989,-26.9006 h 115.9226 115.92259 l 6.77952,18.8531 c 3.7287,10.3692 9.0676,19.7311 11.8642,20.8043 3.1032,1.1908 5.0848,7.5899 5.0848,16.4203 0,22.6995 13.1565,105.1885 20.7934,130.371 1.8585,6.1283 -9.3282,6.4932 -199.08249,6.4932 H 639.16997 Z m 227.58832,-2.9932 c 11.3621,-7.9583 11.3621,-28.7251 0,-36.6834 -17.01552,-11.9181 -36.27862,-2.5214 -36.27862,17.697 0,21.4608 18.74209,31.2695 36.27862,18.9864 z m -81.10188,-26.6901 c 4.36961,-3.5713 8.92737,-12.632 10.12835,-20.1348 1.81928,-11.3654 0.59042,-15.2346 -7.36503,-23.1901 -18.72608,-18.7261 -50.70059,-6.9218 -50.70059,18.7175 0,25.3286 28.90209,40.1648 47.93727,24.6074 z m 81.10188,-36.387 c 16.6489,-11.6614 6.94992,-42.4595 -13.37139,-42.4595 -13.40064,0 -22.90723,10.1603 -22.90723,24.4824 0,12.6085 10.44524,23.7531 22.26253,23.7531 3.17331,0 9.48055,-2.5992 14.01609,-5.776 z"
       id="path44" /><path
       style="fill:#f7f7f7;fill-opacity:1;stroke:#f7f7f7;stroke-width:37.1042;stroke-linecap:square;stroke-linejoin:bevel;stroke-dasharray:none;stroke-opacity:1"
       d="m 2837.3327,1591.7235 c -36.0449,-5.021 -62.7763,-13.944 -69.1854,-23.0942 -8.9023,-12.7099 -7.9868,-63.6605 1.311,-72.9583 12.0353,-12.0352 73.401,-26.2555 113.5636,-26.3161 25.9669,-0.039 42.0687,5.3782 55.9367,18.8196 29.8672,28.9484 22.2576,80.0325 -14.5216,97.4853 -15.7825,7.4894 -56.5145,10.3249 -87.1043,6.0637 z"
       id="path45" /><path
       style="fill:#f7f7f7;fill-opacity:1;stroke:#f7f7f7;stroke-width:7.22036;stroke-linecap:square;stroke-linejoin:bevel;stroke-dasharray:none;stroke-opacity:1"
       d="m 1812.0648,1589.177 c -6.9661,-1.8247 -12.4846,-5.042 -17.8476,-10.4049 -5.4507,-5.4507 -8.5897,-10.9036 -10.4388,-18.1335 -2.4676,-9.648 -1.5315,-18.0527 3.0699,-27.5655 6.5853,-13.6141 23.5575,-23.0977 38.5816,-21.5585 9.0743,0.9297 18.305,5.3437 24.577,11.7524 15.539,15.8776 15.3452,40.063 -0.4469,55.7889 -9.9941,9.9522 -23.8556,13.6938 -37.4952,10.1211 z"
       id="path47" /><path
       style="fill:#f7f7f7;fill-opacity:1;stroke:#f7f7f7;stroke-width:7.22036;stroke-linecap:square;stroke-linejoin:bevel;stroke-dasharray:none;stroke-opacity:1"
       d="m 1819.4265,1504.0336 c -3.8707,-1.6304 -3.868,-1.6069 -3.868,-33.4552 0,-18.8454 0.2684,-29.9917 0.7435,-30.8794 0.4089,-0.764 1.7284,-1.8985 2.9323,-2.5211 1.7817,-0.9213 2.6531,-0.9787 4.6844,-0.3083 4.6205,1.5249 4.6365,1.643 4.6365,34.2018 v 29.2381 l -1.6246,1.8461 c -1.8,2.0454 -5.1288,2.8785 -7.5041,1.878 z"
       id="path48" /><path
       style="fill:#f7f7f7;fill-opacity:1;stroke:#f7f7f7;stroke-width:7.22036;stroke-linecap:square;stroke-linejoin:bevel;stroke-dasharray:none;stroke-opacity:1"
       d="m 1709.9331,1555.9779 c -1.0158,-0.799 -2.055,-2.3999 -2.3093,-3.5574 -0.5365,-2.443 1.0836,-6.1104 3.1996,-7.2429 0.8865,-0.4745 11.8689,-0.7434 30.3538,-0.7434 31.8164,0 32.1715,0.045 33.9332,4.2981 0.733,1.7695 0.7334,2.6298 0,4.395 -1.8209,4.3962 -1.0966,4.3035 -33.626,4.3035 -28.6731,0 -29.7707,-0.051 -31.5535,-1.4529 z"
       id="path49" /><path
       style="fill:#f7f7f7;fill-opacity:1;stroke:#f7f7f7;stroke-width:7.22036;stroke-linecap:square;stroke-linejoin:bevel;stroke-dasharray:none;stroke-opacity:1"
       d="m 1819.4265,1665.0202 c -3.8658,-1.5601 -3.868,-1.5786 -3.868,-33.4279 0,-18.8454 0.2684,-29.9917 0.7435,-30.8794 1.0776,-2.0136 4.861,-3.7698 6.9772,-3.2387 0.9839,0.247 2.5735,1.2956 3.5324,2.3303 l 1.7436,1.8813 v 29.5455 c 0,18.8833 -0.2683,30.0468 -0.7435,30.9347 -0.7923,1.4805 -4.3409,3.6004 -5.8995,3.5244 -0.5161,-0.025 -1.6347,-0.3268 -2.4857,-0.6702 z"
       id="path50"
       inkscape:label="path50" /></g><path
     style="fill:none;fill-opacity:0.547556;stroke:#000000;stroke-width:24;stroke-linejoin:round;stroke-dasharray:none;stroke-opacity:1"
     d="m 2744.5804,479.03164 v 325 c 0,254.99996 180,264.99996 340,224.99996 0,20.0114 0,30 0,45 0,96.7126 -110,135 -180,45 l -125,125 c 90,150 495,125 495,-160 V 479.03164 h -190 v 325 c 0,95 -155,95 -155,0 v -325 z"
     id="path23"
     sodipodi:nodetypes="cccsccccccccc"
     inkscape:label="y" /><path
     style="fill:none;fill-opacity:0.547556;stroke:#000000;stroke-width:24;stroke-linejoin:round;stroke-dasharray:none;stroke-opacity:1"
     d="M 2144.5804,1034.0316 V 269.03164 h 185 v 400 l 170,-190 h 220 l -215,260 215,294.99996 h -230 l -160,-229.99996 v 229.99996 z"
     id="path22"
     sodipodi:nodetypes="cccccccccccc"
     inkscape:label="k" /><path
     style="fill:none;fill-opacity:0.547556;stroke:#000000;stroke-width:24;stroke-linejoin:round;stroke-dasharray:none;stroke-opacity:1"
     d="m 909.58044,749.03164 c -4.7432,369.96956 415.00006,330.00006 474.99996,259.99996 v 25 h 175 v -284.99996 0 c -4.9999,-389.9999 -644.99996,-389.9999 -649.99996,0 z"
     id="path10"
     sodipodi:nodetypes="scccccs"
     inkscape:label="a" /><path
     style="fill:none;fill-opacity:0.547556;stroke:#000000;stroke-width:24;stroke-linejoin:round;stroke-dasharray:none;stroke-opacity:1"
     d="m 574.58044,1034.0316 h 190 V 684.03164 c 5,-65 65,-70 110,-45 v -180 c -205,-25 -300,95 -300,225 z"
     id="path19"
     sodipodi:nodetypes="ccccccc"
     inkscape:label="r" /><path
     style="display:inline;fill:#ffffff;fill-opacity:0;stroke:#000000;stroke-width:24;stroke-linejoin:round;stroke-dasharray:none;stroke-opacity:1"
     d="m 224.58044,739.03164 v -370 c 0,-128 20.00003,-260 330,-260 v 170 c -85,15 -130,-3 -140,90 0.3333,156.3333 0,370 0,370 z"
     id="path147"
     sodipodi:nodetypes="ccccccc"
     inkscape:label="f" /><g
     id="g8"
     inkscape:label="robot_socket"
     style="display:inline;stroke-width:24;stroke-dasharray:none"
     transform="translate(-585.92793,-834.02646)"><path
       style="display:inline;fill:none;fill-opacity:1;stroke:#000000;stroke-width:24;stroke-linejoin:round;stroke-dasharray:none;stroke-opacity:1"
       d="m 755.50837,1648.0581 c -22.80908,20.5672 -57.6072,47.3632 -75,60 -58.16656,42.2615 -45.45499,74.4231 -55,140 v 20 h 435.00003 c -26.7827,-83.3916 -30,-180 -30,-180 h -10 l -15,-40 z"
       id="path2"
       sodipodi:nodetypes="csccccccc"
       inkscape:label="socket_body" /><circle
       style="display:inline;fill:#000000;fill-opacity:1;stroke:#000000;stroke-width:24;stroke-dasharray:none;stroke-opacity:1"
       id="path4"
       cx="769.86206"
       cy="1768.1663"
       r="15.915741"
       inkscape:label="socket_dot_left" /><circle
       style="display:inline;fill:#000000;fill-opacity:1;stroke:#000000;stroke-width:24;stroke-dasharray:none;stroke-opacity:1"
       id="path5"
       cx="855.56195"
       cy="1799.9977"
       r="10.100374"
       inkscape:label="socket_dot_right_bottom" /><circle
       style="fill:#000000;fill-opacity:1;stroke:#000000;stroke-width:24;stroke-dasharray:none;stroke-opacity:1"
       id="path5-6"
       cx="855.48108"
       cy="1736.6956"
       r="10.100374"
       inkscape:label="socket_dot_right_top" /><path
       style="display:inline;fill:#000000;fill-opacity:1;stroke:#000000;stroke-width:24;stroke-linejoin:round;stroke-dasharray:none;stroke-opacity:1"
       d="m 755.50837,1648.0581 -10,-5 v -45 l 40,-25 h 245.00003 c 11.4092,10.2682 0,50.1683 0,65 2.282,22.4379 8.803,37.45 5,50 h -15 l -15,-40 z"
       id="path7"
       sodipodi:nodetypes="cccccccccc"
       inkscape:label="socket_black_band" /><ellipse
       style="fill:#e6001a;fill-opacity:1;stroke:none;stroke-width:36.8115;stroke-dasharray:none;stroke-opacity:1"
       id="path6"
       cx="748.90234"
       cy="1598.0581"
       rx="31.606001"
       ry="31.606007"
       inkscape:label="scket_red_dot" /></g><path
     style="fill:#000000;stroke-width:0.664525"
     d="m 3049.1258,817.54934 c 16.9278,-19.3862 37.5915,-33.3597 62.0777,-41.9791 4.2237,-1.4867 13.7269,-3.8666 21.118,-5.2886 23.6407,-4.5487 40.6035,-4.7117 75.9217,-0.7299 15.0527,1.6969 39.5656,3.6881 64.6675,5.2526 21.5187,1.3414 26.5609,3.6322 40.1218,18.2273 19.2661,20.7355 32.1789,45.616 38.1145,73.4386 4.1205,19.3391 4.6317,37.3633 1.6063,57.2096 -1.8558,12.1752 -3.2015,15.7763 -8.6439,23.1313 -4.2903,5.798 -4.6665,6.1276 -26.6193,23.3131 -24.8327,19.4402 -29.6836,23.4187 -41.8123,34.29066 -25.2204,22.6072 -49.9254,37.5028 -74.9499,45.1899 -7.8321,2.4058 -22.3562,5.1874 -30.5413,5.8487 -26.1779,2.1158 -55.7507,-3.9058 -78.7667,-16.0379 -8.2379,-4.3424 -21.2856,-13.3374 -28.171,-19.421 -12.3335,-10.8971 -21.5106,-22.17026 -29.7108,-36.49716 -23.4306,-40.9363 -25.457,-88.6509 -5.647,-132.9778 2.822,-6.315 16.4901,-27.5367 21.2347,-32.9703 z m 24.2941,58.1392 c -8.8992,21.4229 -9.5922,44.4412 -2.0002,66.4388 9.0121,26.1119 30.6114,47.7123 56.8139,56.8163 41.763,14.51046 89.4371,-3.5498 110.5537,-41.881 11.1109,-20.1684 14.4832,-41.3929 10.0612,-63.3193 -3.7003,-18.3461 -11.6802,-33.306 -25.2077,-47.2564 -6.5624,-6.7678 -18.7257,-15.2061 -27.4523,-19.0457 -17.6485,-7.7648 -36.076,-9.8438 -54.9718,-6.2026 -13.7525,2.6503 -25.7378,7.7881 -36.5985,15.6897 -5.0334,3.6619 -12.7844,10.6999 -16.5157,14.9967 -3.1798,3.6618 -12.8001,19.2321 -14.6826,23.7635 z"
     id="path9"
     inkscape:label="joint_element_1"
     sodipodi:nodetypes="sssssssssssssssssssssssssssss"
     inkscape:transform-center-x="-34.219449"
     inkscape:transform-center-y="-2.9757962" /><g
     id="g24"
     inkscape:label="f_bar"
     transform="matrix(1.1828803,0,0,1.1828803,-722.56045,-986.69053)"><g
       id="g1"
       inkscape:label="lower_arm"><path
         style="display:inline;fill:#ffffff;fill-opacity:1;stroke-width:0.509959"
         d="m 1183.1861,1276.2025 c -2.268,26.2735 -18.5767,46.8504 -42.7965,53.9931 -12.1892,3.5948 -5.0427,3.3937 -114.733,3.2251 -111.45878,-0.1713 -148.84947,0.2719 -162.42255,1.9218 -17.9954,2.1879 -30.69305,5.261 -40.85476,9.8876 -3.33398,1.5177 -10.88089,5.1032 -16.77092,7.9687 -20.79684,10.1154 -31.08651,14.2182 -43.34681,17.2839 -37.01632,9.2561 -74.37421,-0.9141 -100.73571,-27.4255 -9.11773,-9.1684 -14.90264,-17.3412 -20.43129,-28.863 -10.05945,-20.9654 -12.93105,-43.7694 -8.35751,-66.3696 4.03522,-19.9409 13.97951,-38.3783 28.56676,-52.9659 16.93661,-16.9365 38.58628,-27.4401 62.59744,-30.37 6.55557,-0.7987 23.5361,-0.3542 29.69092,0.7791 15.7198,2.8946 25.86239,6.6349 52.40297,19.3267 21.816,10.4328 21.00323,10.0827 28.52792,12.2486 8.137,2.342 17.96121,4.22 28.45604,5.4414 16.12726,1.8741 34.51139,2.1109 149.9299,1.9307 122.8581,-0.1929 115.1322,-0.3876 127.4806,3.2191 24.459,7.1437 40.4274,27.7513 42.8139,55.2535 0.5827,6.7117 0.5829,6.5688 -0.018,13.5147 z"
         id="path3-6"
         sodipodi:nodetypes="csssssssssssssssssscc"
         inkscape:label="lower_arm_element_background" /><path
         style="display:inline;fill:#000000;stroke-width:0.552839"
         d="m 1209.8711,1280.7638 c -2.4593,28.4836 -20.1404,50.7905 -46.3956,58.5336 -13.2137,3.8969 -5.4664,3.6791 -124.3788,3.4968 -120.8306,-0.1852 -161.36497,0.2945 -176.07921,2.0833 -19.50843,2.3717 -33.2737,5.703 -44.28979,10.7182 -3.61426,1.6455 -11.79571,5.5328 -18.181,8.6387 -22.54532,10.9662 -33.70014,15.4142 -46.99131,18.7377 -40.12868,10.0343 -80.62741,-0.9913 -109.20534,-29.7307 -9.88433,-9.9402 -16.15552,-18.7998 -22.14906,-31.2911 -10.90525,-22.728 -14.01826,-47.4491 -9.06025,-71.9498 4.37448,-21.617 15.15488,-41.6049 30.96863,-57.4187 18.36058,-18.3607 41.83058,-29.7475 67.86049,-32.9234 7.10671,-0.8671 25.51498,-0.3842 32.18728,0.8445 17.04146,3.138 28.0368,7.1931 56.80885,20.9513 23.65027,11.3092 22.7692,10.9309 30.92655,13.2786 8.82114,2.5389 19.47138,4.5751 30.84852,5.898 17.48325,2.0329 37.41313,2.2896 162.53464,2.0937 133.1885,-0.2085 124.813,-0.42 138.1998,3.4899 26.5155,7.7445 43.827,30.0856 46.414,59.8992 0.6315,7.2764 0.6317,7.1214 -0.018,14.6502 z m -79.5024,-19.8106 c -0.8986,-2.9786 -3.1699,-6.4412 -5.2814,-8.0518 -5.0185,-3.8277 -15.3832,-7.0717 -28.4775,-8.9127 l -6.8926,-0.9691 -2.5056,2.9468 c -11.5244,13.5534 -12.5859,14.6812 -14.9361,15.8675 l -2.4737,1.2487 -91.60382,-0.1431 -91.60388,-0.1429 -1.56079,-1.161 c -1.69641,-1.2619 -5.92735,-5.9624 -15.39237,-17.1008 l -6.09184,-7.1688 -8.55839,-1.4653 c -12.26367,-2.0997 -21.30702,-4.8818 -50.0213,-15.3887 -34.93676,-12.7838 -45.34903,-15.7194 -60.69701,-17.1124 -15.67366,-1.4226 -33.30122,3.2294 -45.71733,12.065 -24.83003,17.6694 -35.65102,48.1454 -27.30777,76.9088 7.82232,26.9676 31.15243,46.3362 59.91606,49.7423 10.41266,1.2331 25.42251,-0.7611 41.15842,-5.4683 4.88155,-1.4602 20.44372,-6.8839 34.58257,-12.0524 28.50584,-10.4206 33.90227,-12.134 44.77994,-14.218 13.78155,-2.6403 23.2087,-2.9946 96.19395,-3.6155 82.58786,-0.7025 104.73816,-1.2346 129.08786,-3.1008 17.23,-1.3205 27.6231,-2.8662 36.4187,-5.4161 12.857,-3.7273 17.0036,-8.5902 17.9699,-21.0743 0.3815,-4.9275 -0.1331,-13.3901 -0.986,-16.2171 z"
         id="path3"
         sodipodi:nodetypes="cssssssssssssssssssccssscsscccsscssssssssssssss"
         inkscape:label="lower_arm_element_foreground" /></g><g
       id="g12"
       inkscape:label="slogan"
       transform="translate(-20)"><path
         d="m 870.41211,1155.6977 h 1.24805 q -0.58594,1.1895 -1.79883,1.8633 -1.38867,0.7734 -3.38672,0.7734 -1.93359,0 -3.33984,-0.6562 -1.40625,-0.6504 -2.0918,-1.9219 -0.68555,-1.2773 -0.68555,-2.7773 0,-1.6465 0.7793,-3.0645 0.7793,-1.4238 2.13281,-2.1328 1.35352,-0.7148 3.09375,-0.7148 1.47656,0 2.625,0.5742 1.14844,0.5742 1.75195,1.6347 0.60938,1.0547 0.60938,2.3086 0,1.4942 -0.91992,2.7012 -1.1543,1.5235 -2.95899,1.5235 -0.48633,0 -0.73242,-0.17 -0.24609,-0.1699 -0.32812,-0.498 -0.69141,0.668 -1.59375,0.668 -0.97266,0 -1.61719,-0.668 -0.63867,-0.6738 -0.63867,-1.7871 0,-1.377 0.77343,-2.5137 0.9375,-1.3828 2.40235,-1.3828 1.04297,0 1.54101,0.7969 l 0.14649,-0.6504 h 1.54687 l -0.88476,4.2011 q -0.082,0.3985 -0.082,0.5157 0,0.1465 0.0644,0.2226 0.0703,0.07 0.16406,0.07 0.28125,0 0.72656,-0.3398 0.59766,-0.4453 0.9668,-1.1953 0.36914,-0.75 0.36914,-1.5528 0,-1.4414 -1.04297,-2.4082 -1.04297,-0.9726 -2.91211,-0.9726 -1.58789,0 -2.69531,0.6504 -1.10156,0.6445 -1.66406,1.8222 -0.55664,1.1719 -0.55664,2.4434 0,1.2363 0.62109,2.25 0.62695,1.0137 1.75195,1.4766 1.13086,0.4687 2.58399,0.4687 1.40039,0 2.4082,-0.3926 1.00781,-0.3867 1.62305,-1.166 z m -6.33399,-2.4082 q 0,0.7442 0.29883,1.0957 0.30469,0.3516 0.75,0.3516 0.33399,0 0.62696,-0.1641 0.22265,-0.1172 0.43945,-0.3691 0.31055,-0.3574 0.5332,-1.043 0.22852,-0.6855 0.22852,-1.2773 0,-0.6621 -0.31055,-1.0137 -0.30469,-0.3574 -0.77344,-0.3574 -0.5039,0 -0.93164,0.3926 -0.42773,0.3867 -0.64453,1.1074 -0.2168,0.7207 -0.2168,1.2773 z"
         id="text10"
         style="font-weight:bold;font-family:Arial;-inkscape-font-specification:'Arial Bold';white-space:pre;fill:#ffffff;stroke:#ffffff;stroke-width:0.293349;stroke-linejoin:round"
         inkscape:label="@"
         transform="matrix(1.1317574,0,0,1.1317574,-34.432665,-55.857449)"
         aria-label="@" /><path
         d="m 862.80664,1155.8091 v -7.1368 h -2.54883 v -1.4531 h 6.82617 v 1.4531 h -2.54296 v 7.1368 z m 5.38477,-8.5899 h 1.73437 v 4.6524 q 0,1.1074 0.0644,1.4355 0.11133,0.5273 0.52735,0.8496 0.42187,0.3164 1.14844,0.3164 0.73828,0 1.11328,-0.2988 0.375,-0.3047 0.45117,-0.7442 0.0762,-0.4394 0.0762,-1.4589 v -4.752 h 1.73438 v 4.5117 q 0,1.5469 -0.14063,2.1856 -0.14062,0.6386 -0.52148,1.0781 -0.375,0.4395 -1.00782,0.7031 -0.63281,0.2578 -1.65234,0.2578 -1.23047,0 -1.86914,-0.2812 -0.63281,-0.2871 -1.00195,-0.7383 -0.36914,-0.457 -0.48633,-0.9551 -0.16992,-0.7383 -0.16992,-2.1797 z m 12.00586,0 h 3.16992 q 1.07226,0 1.63476,0.1641 0.75586,0.2226 1.29492,0.791 0.53907,0.5683 0.82032,1.3945 0.28125,0.8203 0.28125,2.0274 0,1.0605 -0.26367,1.8281 -0.32227,0.9375 -0.91993,1.5176 -0.45117,0.4394 -1.21875,0.6855 -0.57422,0.1817 -1.53515,0.1817 h -3.26367 z m 1.73437,1.4531 v 5.6895 h 1.29492 q 0.72656,0 1.04883,-0.082 0.42188,-0.1055 0.69727,-0.3575 0.28125,-0.2519 0.45703,-0.8261 0.17578,-0.5801 0.17578,-1.5762 0,-0.9961 -0.17578,-1.5293 -0.17578,-0.5332 -0.49219,-0.832 -0.31641,-0.2989 -0.80273,-0.4043 -0.36329,-0.082 -1.42383,-0.082 z m 8.15625,2.8125 -1.49414,-0.2695 q 0.25195,-0.9023 0.86719,-1.3359 0.61523,-0.4336 1.82812,-0.4336 1.10156,0 1.64063,0.2636 0.53906,0.2579 0.75586,0.6622 0.22265,0.3984 0.22265,1.4707 l -0.0176,1.9218 q 0,0.8203 0.0762,1.2129 0.082,0.3867 0.29882,0.8321 h -1.6289 q -0.0644,-0.1641 -0.1582,-0.4864 -0.041,-0.1465 -0.0586,-0.1933 -0.42187,0.4101 -0.90234,0.6152 -0.48047,0.2051 -1.02539,0.2051 -0.96094,0 -1.51758,-0.5215 -0.55078,-0.5215 -0.55078,-1.3184 0,-0.5273 0.25195,-0.9375 0.25195,-0.416 0.70313,-0.6328 0.45703,-0.2226 1.3125,-0.3867 1.15429,-0.2168 1.59961,-0.4043 v -0.1641 q 0,-0.4746 -0.23438,-0.6738 -0.23437,-0.2051 -0.88477,-0.2051 -0.43945,0 -0.68554,0.1758 -0.2461,0.1699 -0.39844,0.6035 z m 2.20313,1.336 q -0.31641,0.1054 -1.00196,0.2519 -0.68554,0.1465 -0.89648,0.2871 -0.32227,0.2285 -0.32227,0.5801 0,0.3457 0.25781,0.5977 0.25782,0.2519 0.65625,0.2519 0.44532,0 0.84961,-0.2929 0.29883,-0.2227 0.39258,-0.545 0.0645,-0.2109 0.0645,-0.8027 z m 4.8164,2.9883 h -1.64648 v -6.2227 h 1.52929 v 0.8848 q 0.39258,-0.627 0.70313,-0.8262 0.31641,-0.1992 0.71484,-0.1992 0.5625,0 1.08399,0.3105 l -0.50977,1.4356 q -0.41601,-0.2696 -0.77344,-0.2696 -0.3457,0 -0.58593,0.1934 -0.24024,0.1875 -0.38086,0.6855 -0.13477,0.4981 -0.13477,2.086 z m 2.9707,-6.2227 h 1.51758 v 0.8496 q 0.81446,-0.9902 1.93946,-0.9902 0.59765,0 1.03711,0.2461 0.43945,0.2461 0.7207,0.7441 0.41015,-0.498 0.88476,-0.7441 0.47461,-0.2461 1.01368,-0.2461 0.68554,0 1.16015,0.2812 0.47461,0.2754 0.70899,0.8145 0.16992,0.3984 0.16992,1.289 v 3.9786 h -1.64649 v -3.5567 q 0,-0.9258 -0.16992,-1.1953 -0.22851,-0.3516 -0.70312,-0.3516 -0.34571,0 -0.65039,0.211 -0.30469,0.2109 -0.43946,0.6211 -0.13476,0.4043 -0.13476,1.2832 v 2.9883 h -1.64649 v -3.4102 q 0,-0.9082 -0.0879,-1.1719 -0.0879,-0.2637 -0.27539,-0.3926 -0.18164,-0.1289 -0.49804,-0.1289 -0.38086,0 -0.68555,0.2051 -0.30469,0.2051 -0.43945,0.5918 -0.12891,0.3867 -0.12891,1.2832 v 3.0235 h -1.64649 z m 10.2129,4.4473 1.65234,-0.252 q 0.10547,0.4805 0.42773,0.7324 0.32227,0.2461 0.90235,0.2461 0.63867,0 0.96093,-0.2344 0.2168,-0.164 0.2168,-0.4394 0,-0.1875 -0.11719,-0.3106 -0.12304,-0.1171 -0.55078,-0.2167 -1.99218,-0.4395 -2.52539,-0.8028 -0.73828,-0.5039 -0.73828,-1.4004 0,-0.8086 0.63867,-1.3593 0.63867,-0.5508 1.98047,-0.5508 1.27735,0 1.89844,0.416 0.62109,0.416 0.85547,1.2305 l -1.55274,0.2871 q -0.0996,-0.3633 -0.38086,-0.5567 -0.27539,-0.1933 -0.79101,-0.1933 -0.65039,0 -0.93164,0.1816 -0.1875,0.1289 -0.1875,0.334 0,0.1758 0.16406,0.2988 0.22266,0.1641 1.53516,0.4629 1.31836,0.2988 1.83984,0.7324 0.51563,0.4395 0.51563,1.2246 0,0.8555 -0.71485,1.4707 -0.71484,0.6153 -2.11523,0.6153 -1.27149,0 -2.01563,-0.5156 -0.73828,-0.5157 -0.96679,-1.4004 z m 10.10742,-4.4473 v 1.3125 h -1.125 v 2.5078 q 0,0.7617 0.0293,0.8906 0.0352,0.1231 0.14649,0.2051 0.11719,0.082 0.28125,0.082 0.22851,0 0.66211,-0.1582 l 0.14062,1.2774 q -0.57422,0.2461 -1.30078,0.2461 -0.44531,0 -0.80273,-0.1465 -0.35742,-0.1524 -0.52735,-0.3867 -0.16406,-0.2403 -0.22851,-0.6446 -0.0527,-0.2871 -0.0527,-1.1601 v -2.7129 h -0.75586 v -1.3125 h 0.75586 v -1.2363 l 1.65235,-0.961 v 2.1973 z m 2.37304,1.8984 -1.49414,-0.2695 q 0.25196,-0.9023 0.86719,-1.3359 0.61524,-0.4336 1.82813,-0.4336 1.10156,0 1.64062,0.2636 0.53906,0.2579 0.75586,0.6622 0.22266,0.3984 0.22266,1.4707 l -0.0176,1.9218 q 0,0.8203 0.0762,1.2129 0.082,0.3867 0.29883,0.8321 h -1.62891 q -0.0644,-0.1641 -0.1582,-0.4864 -0.041,-0.1465 -0.0586,-0.1933 -0.42188,0.4101 -0.90235,0.6152 -0.48047,0.2051 -1.02539,0.2051 -0.96094,0 -1.51758,-0.5215 -0.55078,-0.5215 -0.55078,-1.3184 0,-0.5273 0.25195,-0.9375 0.25196,-0.416 0.70313,-0.6328 0.45703,-0.2226 1.3125,-0.3867 1.1543,-0.2168 1.59961,-0.4043 v -0.1641 q 0,-0.4746 -0.23438,-0.6738 -0.23437,-0.2051 -0.88476,-0.2051 -0.43945,0 -0.68555,0.1758 -0.24609,0.1699 -0.39844,0.6035 z m 2.20313,1.336 q -0.31641,0.1054 -1.00195,0.2519 -0.68555,0.1465 -0.89649,0.2871 -0.32226,0.2285 -0.32226,0.5801 0,0.3457 0.25781,0.5977 0.25781,0.2519 0.65625,0.2519 0.44531,0 0.84961,-0.2929 0.29883,-0.2227 0.39258,-0.545 0.0644,-0.2109 0.0644,-0.8027 z m 8.94726,2.9883 h -1.52929 v -0.9141 q -0.38086,0.5332 -0.90235,0.7969 -0.51562,0.2578 -1.04296,0.2578 -1.07227,0 -1.83985,-0.8614 -0.76172,-0.8671 -0.76172,-2.414 0,-1.582 0.74414,-2.4024 0.74414,-0.8261 1.88086,-0.8261 1.04297,0 1.80469,0.8672 v -3.0938 h 1.64648 z m -4.39453,-3.2461 q 0,0.9961 0.27539,1.4414 0.39844,0.6445 1.11329,0.6445 0.56835,0 0.96679,-0.4805 0.39844,-0.4863 0.39844,-1.4472 0,-1.0723 -0.38672,-1.5411 -0.38672,-0.4746 -0.99023,-0.4746 -0.58594,0 -0.98438,0.4688 -0.39258,0.4629 -0.39258,1.3887 z m 8.8711,-2.9766 v 1.3125 h -1.125 v 2.5078 q 0,0.7617 0.0293,0.8906 0.0352,0.1231 0.14649,0.2051 0.11719,0.082 0.28125,0.082 0.22851,0 0.66211,-0.1582 l 0.14062,1.2774 q -0.57422,0.2461 -1.30078,0.2461 -0.44531,0 -0.80273,-0.1465 -0.35742,-0.1524 -0.52735,-0.3867 -0.16406,-0.2403 -0.22851,-0.6446 -0.0527,-0.2871 -0.0527,-1.1601 v -2.7129 h -0.75586 v -1.3125 h 0.75586 v -1.2363 l 1.65235,-0.961 v 2.1973 z"
         id="text10-4"
         style="font-weight:bold;font-family:Arial;-inkscape-font-specification:'Arial Bold';white-space:pre;fill:#ffffff;stroke:#ffffff;stroke-width:0.293349;stroke-linejoin:round"
         inkscape:label="TU"
         transform="matrix(1.398447,0,0,1.398447,-246.69407,-362.00777)"
         aria-label="TU Darmstadt" /><path
         style="fill:#ffffff;fill-opacity:1;stroke-width:0.0169287"
         d="m 913.11721,1248.7222 v -6.54 h 2.28409 2.28408 v 6.54 6.5399 h -2.28408 -2.28409 z m 5.25885,0 v -6.54 h 3.90924 3.90923 v 6.54 6.5399 h -1.12364 -1.12363 v -2.5983 c 0,-3.1826 0.002,-3.6293 0.0179,-3.8795 0.007,-0.1015 0.017,-0.154 0.0327,-0.1624 0.009,-0.011 0.0317,-0.011 0.039,0 0.0239,0.02 0.0336,0.1178 0.04,0.4062 0.007,0.2798 0.008,0.8535 0.008,3.1494 l 4e-5,2.4244 h 0.38089 0.3809 v -3.6503 -3.6503 h -0.98524 -0.98526 v -0.3807 -0.381 h 0.60438 0.60433 v -1.5401 -1.54 h -1.81559 -1.81558 v 1.54 1.5401 h 0.60562 0.60563 l -8.5e-4,0.3804 -8.7e-4,0.3801 h -0.98587 -0.98588 v 3.6503 3.6501 h 0.38089 0.3809 v -2.4128 c 2e-5,-2.2827 0.002,-2.8761 0.008,-3.157 0.007,-0.2907 0.0161,-0.3914 0.0399,-0.4101 0.008,-0.011 0.0303,-0.011 0.039,0 0.0234,0.013 0.0337,0.1036 0.0404,0.3579 0.008,0.2843 0.009,0.5347 0.01,3.3793 l 8.6e-4,2.903 h -1.1073 -1.1073 z m 8.54724,3.9104 v -2.6294 h 0.6564 0.65641 l 8.5e-4,1.0201 8.6e-4,1.0202 h 1.40105 1.40105 v -1.7306 -1.7305 h -2.0581 -2.05809 v -3.2008 -3.2007 h 3.6845 3.68451 v 1.6265 1.6263 h -0.38089 -0.3809 v -0.9864 -0.9866 h -2.66372 -2.6637 v 1.54 1.5401 h 3.04461 3.0446 v 4.3599 4.3601 h -3.68451 -3.6845 z m -5.84797,-7.9759 v -0.2932 h 0.29456 0.29457 v 0.2932 0.2932 h -0.29457 -0.29456 z m 1.80035,0 v -0.2932 h 0.29328 0.2933 v 0.2932 0.2932 h -0.2933 -0.29328 z"
         id="path11"
         inkscape:label="ias_logo" /><path
         style="fill:#ffffff;fill-opacity:1;stroke-width:0.016916"
         d="m 1072.7446,1253.496 v -1.5789 h 1.5787 1.579 v 1.5789 1.5789 h -1.579 -1.5787 z m 2.7066,0 v -1.1277 h -1.1279 -1.1277 v 1.1277 1.1278 h 1.1277 1.1279 z m -1.8044,0 v -0.6765 h 0.6765 0.6767 v 0.6765 0.6766 h -0.6767 -0.6765 z m 2.7065,0.4512 v -1.1277 h 0.2255 0.2256 v 0.2256 0.2256 h 0.2255 0.2257 v -0.2256 -0.2256 h 0.2255 0.2254 v 0.2256 0.2256 h -0.2254 -0.2255 v 0.2253 0.2257 h 0.6766 0.6766 v -0.2257 -0.2253 h -0.2255 -0.2257 v -0.4512 -0.4512 h 0.2257 0.2255 v 0.2257 0.2255 h 0.2255 0.2255 v -0.4512 -0.4512 h 0.451 0.4513 v -0.2254 -0.2256 h -0.6767 -0.6766 v 0.2256 0.2254 h -0.2255 -0.2257 v -0.2254 -0.2256 h -0.2254 -0.2257 v 0.451 0.4511 h -0.6766 -0.6766 v -0.4511 -0.451 h -0.451 -0.4511 v -0.2255 -0.2256 h 0.4511 0.451 v -0.2255 -0.2257 h -0.451 -0.4511 v -0.2256 -0.2253 H 1075.2255 1075 v -0.2257 -0.2254 h -0.2256 -0.2256 v 0.4511 0.4509 h 0.2256 0.2256 v 0.4512 0.4511 h -0.6767 -0.6765 v -0.6766 -0.6766 h -0.2256 -0.2256 v 0.6766 0.6766 h -0.2254 -0.2256 v -2.2555 -2.2555 h 0.2256 0.2254 v -0.2255 -0.2255 h 0.2256 0.2256 v -0.2256 -0.2256 h -0.4512 -0.451 v -0.2256 -0.2254 h 1.1277 1.1277 v 0.2254 0.2256 h 0.2255 0.2257 v -0.2256 -0.2254 h 1.1276 1.1277 v 0.2254 0.2256 h -0.2254 -0.2255 v 0.4512 0.451 h 0.2255 0.2254 v -0.2255 -0.2255 h 0.4511 0.4512 v 0.2255 0.2255 h -0.2255 -0.2257 v 0.4511 0.4511 h 0.2257 0.2255 v -0.2256 -0.2255 h 0.2255 0.2255 v 0.4511 0.4512 h 0.451 0.4513 v -0.2256 -0.2256 h 0.2255 0.2256 v -0.2256 -0.2255 h -0.4511 -0.4513 v -0.2254 -0.2257 h -0.2254 -0.2256 v -0.451 -0.4512 h -0.451 -0.4512 v -0.6766 -0.6766 h 0.2257 0.2255 v 0.4511 0.4511 h 1.1277 1.1277 v -0.4511 -0.4511 h 0.2255 0.2256 v 0.2255 0.2256 h 0.2256 0.2255 v -0.2256 -0.2255 h 0.2257 0.2254 v 0.2255 0.2256 h -0.2254 -0.2257 v 0.2255 0.2256 h 0.4511 0.4511 v 0.2254 0.2256 h 0.2256 0.2254 v -0.2256 -0.2254 h 0.2257 0.2254 v 0.2254 0.2256 h 0.2257 0.2254 v -0.2256 -0.2254 h 0.2256 0.2256 v 0.2254 0.2256 h -0.2256 -0.2256 v 0.2256 0.2256 h -0.4511 -0.4511 v 0.2256 0.2255 h 0.2257 0.2254 v 0.2257 0.2254 h -0.2254 -0.2257 v -0.2254 -0.2257 h -0.451 -0.4511 v 0.2257 0.2254 h -0.2254 -0.2257 v 0.2256 0.2255 h 0.6766 0.6766 v 0.2256 0.2256 h 0.2257 0.2254 v -0.2256 -0.2256 h 0.2257 0.2254 v -0.4511 -0.4511 h 0.2256 0.2256 v 0.2257 0.2254 h 0.2255 0.2257 v -0.2254 -0.2257 h 0.2253 0.2256 v 0.2257 0.2254 h -0.2256 -0.2253 v 0.2256 0.2255 h -0.4512 -0.4512 v 0.2256 0.2256 h 0.4512 0.4512 v 0.2255 0.2256 h 0.2253 0.2256 v 0.2255 0.2255 h -0.2256 -0.2253 v 0.6766 0.6766 h 0.2253 0.2256 v 0.2257 0.2255 h 0.2256 0.2256 v 0.4511 0.451 h -0.4512 -0.4509 v 0.2256 0.2255 h -0.4512 -0.4512 v 0.4512 0.4512 h 0.2256 0.2256 v -0.2256 -0.2256 h 0.4512 0.4509 v -0.2255 -0.2257 h 0.2256 0.2256 v 0.6768 0.6766 h -0.2256 -0.2256 v 0.4511 0.4511 h -0.2256 -0.2253 v 0.2254 0.2256 h -1.3535 -1.3532 v -0.2256 -0.2254 h -0.2254 -0.2257 v 0.2254 0.2256 h -0.6767 -0.6765 v -0.2256 -0.2254 h -0.6767 -0.6767 v -0.2256 -0.2255 h -0.451 -0.4512 v 0.2255 0.2256 h 0.2257 0.2255 v 0.2254 0.2256 h -0.4512 -0.4511 v -0.2256 -0.2254 h -0.2254 -0.2255 v 0.2254 0.2256 h -0.4512 -0.4511 z m 5.4131,0.2256 v -0.4511 h 0.2257 0.2254 v -0.2257 -0.2254 h -0.2254 -0.2257 v -0.2256 -0.2256 h -0.4511 -0.4511 v -0.2255 -0.2257 h 0.2255 0.2256 v -0.2255 -0.2256 h 0.2256 0.2255 v -0.2254 -0.2256 h -0.2255 -0.2256 v -0.2255 -0.2256 h -0.2256 -0.2255 v -0.2255 -0.2257 h 0.6767 0.6766 v 0.2257 0.2255 h 0.2255 0.2256 v -0.2255 -0.2257 h 0.2256 0.2254 v -0.2256 -0.2253 h -0.2254 -0.2256 v -0.2257 -0.2254 h 0.2256 0.2254 v -0.6767 -0.6766 h -0.2254 -0.2256 v 0.2255 0.2256 h -0.2256 -0.2255 v -0.2256 -0.2255 h -0.4511 -0.4511 v 0.2255 0.2256 h -0.4511 -0.451 v -0.2256 -0.2255 h -0.2256 -0.2255 v 0.2255 0.2256 h -0.6767 -0.6766 v -0.2256 -0.2255 h -0.2255 -0.2257 v -0.2256 -0.2256 h -0.2254 -0.2257 v -0.2256 -0.2255 h -0.2254 -0.2255 v 0.2255 0.2256 h -0.2257 -0.2255 v 0.2256 0.2256 h -0.2256 -0.2255 v -0.2256 -0.2256 h -0.451 -0.4511 v 0.2256 0.2256 h 0.2255 0.2256 v 0.2255 0.2256 h -0.6768 -0.6767 v 0.2255 0.2255 h -0.2255 -0.2255 v -0.2255 -0.2255 h -0.2255 -0.2256 v 0.2255 0.2255 h -0.2255 -0.2256 v 0.2256 0.2256 h 0.2256 0.2255 v 0.2254 0.2257 h 0.2256 0.2255 v -0.2257 -0.2254 h 0.2255 0.2255 v -0.2256 -0.2256 h 0.2256 0.2256 v 0.2256 0.2256 h 0.2255 0.2257 v 0.2254 0.2257 h 0.6765 0.6767 v 0.2253 0.2256 h 0.2255 0.2257 v -0.2256 -0.2253 h 0.6766 0.6766 v 0.2253 0.2256 h -0.2255 -0.2257 v 0.4512 0.4512 h 0.2257 0.2255 v -0.2255 -0.2257 h 0.451 0.451 v -0.2255 -0.2257 h -0.2254 -0.2256 v -0.2256 -0.2253 h 0.451 0.4513 v -0.2257 -0.2254 h -0.9023 -0.9022 v -0.4512 -0.451 h 0.2257 0.2255 v 0.2255 0.2255 h 1.3533 1.3532 v 0.2256 0.2256 h 0.4511 0.4511 v 0.2254 0.2257 h -0.6766 -0.6767 v 0.2254 0.2256 h -0.451 -0.4511 v 0.4512 0.4511 h 0.2255 0.2256 v 0.2256 0.2254 h -0.2256 -0.2255 v 0.2256 0.2255 h 0.2255 0.2256 v 0.2257 0.2255 h -0.2256 -0.2255 v 0.2256 0.2256 h -0.2256 -0.2257 v -0.2256 -0.2256 h -0.2254 -0.2256 v 0.4512 0.451 h 0.451 0.4513 v -0.2257 -0.2253 h 0.2255 0.2256 v 0.6765 0.6767 h 0.6765 0.6767 z m -0.4511,-0.6768 v -0.2253 h 0.2256 0.2255 v 0.2253 0.2257 h -0.2255 -0.2256 z m -0.9021,-0.4509 v -0.2256 h 0.2254 0.2256 v 0.2256 0.2256 h -0.2256 -0.2254 z m 0,-1.8044 v -0.2256 h 0.2254 0.2256 v 0.2256 0.2255 h -0.2256 -0.2254 z m 1.8043,-0.9024 v -0.2253 h 0.2255 0.2256 v 0.2253 0.2256 h -0.2256 -0.2255 z m -8.5707,-0.902 v -0.2256 h 0.2255 0.2255 v 0.2256 0.2256 h -0.2255 -0.2255 z m 1.8044,0 v -0.2256 h 0.2255 0.2256 v 0.2256 0.2256 h -0.2256 -0.2255 z m 1.8044,0 v -0.2256 h -0.4512 -0.4511 v -0.2255 -0.2255 h 0.6766 0.6766 v 0.451 0.4512 h -0.2254 -0.2255 z m 4.0597,-0.4511 v -0.2255 h 0.4511 0.4511 v 0.2255 0.2255 h -0.4511 -0.4511 z m -4.0597,-0.9022 v -0.2256 h 0.2255 0.2254 v 0.2256 0.2256 h -0.2254 -0.2255 z m 5.413,6.3153 v -0.2255 h -0.2256 -0.2255 v 0.2255 0.2256 h 0.2255 0.2256 z m 1.3532,0 v -0.2255 h -0.2254 -0.2257 v 0.2255 0.2256 h 0.2257 0.2254 z m 0.9023,0 v -0.2255 h -0.2256 -0.2255 v 0.2255 0.2256 h 0.2255 0.2256 z m -1.8045,-0.9023 v -0.2253 h -0.2254 -0.2256 v 0.2253 0.2257 h 0.2256 0.2254 z m 0.9022,0 v -0.2253 h -0.2254 -0.2257 v 0.2253 0.2257 h 0.2257 0.2254 z m -0.4511,-1.3532 v -0.6766 h -0.6765 -0.6767 v 0.6766 0.6767 h 0.6767 0.6765 z m -0.9021,0 v -0.2256 h 0.2256 0.2254 v 0.2256 0.2255 h -0.2254 -0.2256 z m -4.9621,-0.9021 v -0.2256 h -0.2254 -0.2255 v 0.2256 0.2255 h 0.2255 0.2254 z m 6.7665,0 v -0.2256 h 0.2255 0.2256 v -0.2255 -0.2257 h -0.2256 -0.2255 v -0.4509 -0.4511 h -0.2256 -0.2256 v -0.2256 -0.2256 h 0.4512 0.4511 v -0.2255 -0.2255 h -0.4511 -0.4512 v -0.2256 -0.2255 h -0.2254 -0.2257 v 0.2255 0.2256 h 0.2257 0.2254 v 0.2255 0.2255 h -0.2254 -0.2257 v 0.2256 0.2256 h 0.2257 0.2254 v 0.2254 0.2257 h -0.2254 -0.2257 v 0.2253 0.2256 h 0.2257 0.2254 v 0.4512 0.4511 h 0.2256 0.2256 z m -10.3752,-3.1577 v -0.2256 h 0.2255 0.2255 v 0.2256 0.2256 h 0.2256 0.2256 v -0.2256 -0.2256 h -0.2256 -0.2256 v -0.2255 -0.2256 h 0.6767 0.6768 v -0.2254 -0.2257 h -0.2256 -0.2255 v -0.2255 -0.2255 h 0.4511 0.451 v 0.451 0.4511 h 0.2255 0.2256 v -0.4511 -0.451 h -0.2256 -0.2255 v -0.2256 -0.2256 h -0.451 -0.4511 v 0.2256 0.2256 H 1075.2255 1075 v 0.2255 0.2255 h -0.4512 -0.451 v 0.2257 0.2254 h -0.2255 -0.2256 v -0.2254 -0.2257 h -0.2255 -0.2256 v 0.2257 0.2254 h 0.2256 0.2255 v 0.4511 0.4512 h 0.2256 0.2255 z m 7.2175,-0.6767 v -0.4511 h 0.2256 0.2255 v -0.2255 -0.2255 h -0.2255 -0.2256 v 0.2255 0.2255 h -0.2256 -0.2255 v -0.2255 -0.2255 h -0.2256 -0.2254 v 0.451 0.4511 h 0.2254 0.2256 v 0.2256 0.2255 h 0.2255 0.2256 z m -6.7665,-1.1277 v -0.2256 h -0.2255 -0.2255 v 0.2256 0.2256 h 0.2255 0.2255 z m 5.4133,0 v -0.2256 h -0.2256 -0.2257 v 0.2256 0.2256 h 0.2257 0.2256 z m 1.8043,-0.4512 v -0.2254 h -0.4511 -0.4511 v 0.2254 0.2256 h 0.4511 0.4511 z m 3.6087,4.0599 v -0.2254 h 0.2256 0.2256 v 0.2254 0.2257 h -0.2256 -0.2256 z m 0,-1.8043 v -0.2256 h 0.2256 0.2256 v 0.2256 0.2256 h -0.2256 -0.2256 z m 0,-1.8044 v -0.2256 h -0.2256 -0.2254 v -0.2256 -0.2254 h 0.2254 0.2256 v 0.2254 0.2256 h 0.2256 0.2256 v 0.2256 0.2256 h -0.2256 -0.2256 z m -12.6305,-2.7065 v -1.579 h 1.5787 1.579 v 1.579 1.5788 h -1.579 -1.5787 z m 2.7066,0 v -1.1277 h -1.1279 -1.1277 v 1.1277 1.1277 h 1.1277 1.1279 z m -1.8045,0 v -0.6767 h 0.6766 0.6767 v 0.6767 0.6766 h -0.6767 -0.6766 z m 2.7066,1.1277 v -0.451 h 0.2255 0.2256 v 0.451 0.4511 h -0.2256 -0.2255 z m 0.9023,-0.2256 v -0.6765 h -0.4512 -0.4511 v -0.2256 -0.2257 h 0.2255 0.2256 v -0.2255 -0.2256 h -0.2256 -0.2255 v -0.2255 -0.2255 h 0.2255 0.2256 v -0.2256 -0.2256 h 0.2255 0.2257 v 0.4513 0.4509 h 0.2255 0.2254 v -0.2255 -0.2255 h 0.4511 0.4512 v 0.2255 0.2255 h -0.2255 -0.2257 v 0.4511 0.4513 h 0.2257 0.2255 v -0.2256 -0.2257 h 0.2255 0.2255 v -0.2255 -0.2256 h 0.2256 0.2254 v -0.2255 -0.2255 h 0.2257 0.2256 v -0.2256 -0.2256 h 0.2255 0.2256 v 0.2256 0.2257 h -0.2256 -0.2255 v 0.2255 0.2255 h 0.2255 0.2256 v 0.2256 0.2254 h 0.2254 0.2256 v 0.2257 0.2256 h -0.2256 -0.2254 v 0.6765 0.6767 h -0.2256 -0.2255 v -0.2256 -0.2255 h -0.2256 -0.2257 v 0.2255 0.2256 h -0.2254 -0.2256 v -0.4511 -0.451 h 0.451 0.4513 v -0.2257 -0.2254 h -0.6767 -0.6766 v 0.2254 0.2257 h -0.2255 -0.2257 v -0.2257 -0.2254 h -0.2254 -0.2257 v 0.6765 0.6766 h -0.2254 -0.2255 z m 0.4509,-0.9021 v -0.2257 h -0.2254 -0.2255 v 0.2257 0.2256 h 0.2255 0.2254 z m 4.9621,0 v -1.579 h 1.5788 1.5789 v 1.579 1.5788 h -1.5789 -1.5788 z m 2.7065,0 v -1.1277 h -1.1277 -1.1278 v 1.1277 1.1277 h 1.1278 1.1277 z m -1.8044,0 v -0.6767 h 0.6767 0.6767 v 0.6767 0.6766 h -0.6767 -0.6767 z m -2.2554,0.2256 v -0.4513 h 0.2256 0.2255 v -0.4511 -0.4509 h -0.2255 -0.2256 v 0.2255 0.2255 h -0.2256 -0.2255 v -0.451 -0.4513 h 0.6767 0.6766 v 0.6767 0.6765 h -0.2254 -0.2257 v 0.2257 0.2256 h 0.2257 0.2254 v 0.2254 0.2257 h -0.4511 -0.4511 z"
         id="path12"
         inkscape:label="qr" /></g></g><g
     id="g25"
     inkscape:label="joint_element_2"
     transform="translate(-585.41956,-790.96836)"><path
       style="fill:#ffffff;fill-opacity:1;stroke-width:0.65373"
       d="m 2913.9974,1408.7941 c 25.6234,2.9079 48.7719,13.2838 66.8413,29.9614 20.158,18.6072 31.5158,38.9219 37.6224,67.2891 1.4883,6.9183 1.8288,32.2274 0.5366,39.9968 -7.3024,43.9152 -37.5352,79.8736 -78.9977,93.9586 -16.2622,5.5247 -30.6916,7.3508 -47.8414,6.0556 -25.9585,-1.9602 -82.2158,-11.8952 -109.6882,-19.3717 -34.9566,-9.5117 -50.617,-19.7823 -56.8974,-37.3142 -4.6609,-13.0073 -8.2779,-46.5115 -7.6621,-70.9819 0.3447,-13.7726 1.9321,-30.9308 3.6984,-40.0271 2.1886,-11.2592 7.9073,-20.2312 17.4114,-27.3178 13.4448,-10.0247 40.6033,-19.6428 83.0499,-29.4099 48.0905,-11.0661 74.7469,-14.7886 91.9268,-12.8389 z"
       id="path13-5"
       sodipodi:nodetypes="sssssssssssss"
       inkscape:label="background" /><path
       style="fill:#000000;stroke-width:0.706431"
       d="m 2918.1307,1403.2845 c 27.6883,3.1415 52.703,14.3547 72.2292,32.3774 21.7838,20.1065 34.0576,42.0585 40.6556,72.7131 1.609,7.476 1.9766,34.8265 0.5805,43.2212 -7.8913,47.4563 -40.5615,86.314 -85.3669,101.5345 -17.5727,5.9695 -33.1658,7.9432 -51.6987,6.5435 -28.0513,-2.1185 -88.8436,-12.8546 -118.532,-20.9332 -37.7735,-10.2786 -54.6966,-21.3775 -61.4846,-40.3237 -5.0354,-14.0544 -8.9436,-50.2605 -8.2798,-76.7042 0.3735,-14.8827 2.0873,-33.4247 3.9976,-43.2539 2.3646,-12.1664 8.5441,-21.8621 18.8146,-29.5206 14.5281,-10.8331 43.8765,-21.2257 89.7465,-31.78 51.9672,-11.9573 80.7733,-15.9806 99.338,-13.8741 z m -77.3736,67.3557 c -19.6912,3.0749 -52.659,11.4465 -62.6761,15.9155 -10.7203,4.7827 -15.3972,11.3507 -17.5375,24.6285 -1.4144,8.7759 -0.7965,39.1103 0.9659,47.4043 2.2558,10.6159 7.0237,17.3065 15.0835,21.1655 9.4817,4.5397 39.4702,11.4868 61.8032,14.3172 16.601,2.1039 50.0579,2.4318 65.6335,0.6431 21.7862,-2.5021 39.8229,-15.0269 49.0639,-34.0706 5.2446,-10.8081 7.1454,-19.2414 6.9065,-30.6437 -0.4999,-23.8758 -13.0983,-44.1396 -34.3671,-55.2781 -5.4163,-2.8365 -14.7807,-5.6552 -21.3321,-6.4209 -7.8585,-0.9183 -53.4241,0.759 -63.5437,2.3392 z"
       id="path13"
       sodipodi:nodetypes="ssssssssssssssssssssssssss"
       inkscape:label="foreground" /></g><g
     id="g18"
     inkscape:label="gripper"
     transform="matrix(0,-0.44881897,0.44881897,0,849.20324,1697.3153)"
     style="stroke-width:53.4737;stroke-dasharray:none"><path
       style="fill:#c0c0c0;fill-opacity:1;stroke:#000000;stroke-width:53.4737;stroke-linejoin:round;stroke-dasharray:none;stroke-opacity:1"
       d="m 3525,-655 v 90 h -360 v -90 z"
       id="path17"
       sodipodi:nodetypes="ccccc"
       inkscape:label="wrist" /><g
       id="g52"
       inkscape:label="fingers"
       transform="translate(0,57.92982)"><path
         style="fill:#c0c0c0;fill-opacity:1;stroke:#c0c0c0;stroke-width:53.4737;stroke-linejoin:round;stroke-dasharray:none;stroke-opacity:1"
         d="m 3120,-260 v 45 l 40,70 v 70 h 30 v -70 l -40,-70 h 25 v -45 z m 450,0 v 45 l -40,70 v 70 h -30 v -70 l 40,-70 h -25 v -45 z"
         id="path15"
         inkscape:path-effect="#path-effect15"
         inkscape:original-d="m 3120,-260 v 45 l 40,70 v 70 h 30 v -70 l -40,-70 h 25 v -45 z"
         sodipodi:nodetypes="cccccccccc"
         inkscape:label="gripper_finger" /><path
         style="fill:#000000;fill-opacity:1;stroke:#000000;stroke-width:53.4737;stroke-linejoin:round;stroke-dasharray:none;stroke-opacity:1"
         d="m 3190,-145 h 35 v 70 h -35 z m 310,0 h -35 v 70 h 35 z"
         id="path16"
         inkscape:path-effect="#path-effect16"
         inkscape:original-d="m 3190,-145 h 35 v 70 h -35 z"
         inkscape:label="gripper_fingertip" /></g><path
       style="fill:#c0c0c0;fill-opacity:1;stroke:none;stroke-width:53.4737;stroke-linejoin:round;stroke-dasharray:none;stroke-opacity:1"
       d="m 3345,-425 h -280 c -15,0 -15,-10 -15,-15 0,-25 10,-50 30,-50 h 265 m 0,65 h 280 c 15,0 15,-10 15,-15 0,-25 -10,-50 -30,-50 h -265"
       id="path18"
       inkscape:path-effect="#path-effect18"
       inkscape:original-d="m 3345,-425 h -280 c -15,0 -15,-10 -15,-15 0,-25 10,-50 30,-50 h 265"
       sodipodi:nodetypes="ccccc"
       transform="translate(0,26.736839)"
       inkscape:label="gripper_silver_accent" /><path
       style="fill:none;fill-opacity:0;stroke:#000000;stroke-width:53.4737;stroke-linejoin:round;stroke-dasharray:none;stroke-opacity:1"
       d="m 3345,-219.89474 h -380 c -15,0 -30,-23 -30,-35 0,-84 0,-310.10526 90,-310.10526 h 320 m 0,345.10526 h 380 c 15,0 30,-23 30,-35 0,-84 0,-310.10526 -90,-310.10526 h -320"
       id="path14"
       sodipodi:nodetypes="ccccc"
       inkscape:path-effect="#path-effect14"
       inkscape:original-d="m 3345,-219.89474 h -380 c -15,0 -30,-23 -30,-35 0,-84 0,-310.10526 90,-310.10526 h 320"
       inkscape:label="gripper_body" /></g><g
     id="g29"
     inkscape:label="a_hole"
     transform="translate(-591.41956,-780.96836)"><path
       style="fill:#000000;stroke-width:0.548941"
       d="m 1764.1089,1668.8878 c -41.9905,-20.7619 -70.2362,-60.3256 -77.2992,-108.273 -1.1972,-8.128 -1.3753,-29.2854 -0.3095,-36.779 3.0878,-21.7088 10.3001,-42.1667 20.7073,-58.7367 14.8618,-23.6625 36.6937,-42.8103 61.4795,-53.9212 4.613,-2.0678 16.4282,-6.1513 23.33,-8.0631 9.6125,-2.6627 22.0111,-3.9164 36.5046,-3.6912 34.8706,0.5415 68.0303,14.6902 93.3948,39.8498 16.4003,16.2678 32.7461,33.5075 36.4051,38.396 4.5858,6.1267 8.2717,12.3282 9.9841,16.7981 2.0844,5.4409 5.2502,23.0973 5.9865,33.3881 1.5323,21.415 -1.0964,47.2914 -6.0977,60.025 -4.1591,10.5893 -12.6485,21.1298 -36.0184,44.72 -18.7388,18.9157 -23.0898,22.6688 -34.7623,29.9857 -5.9478,3.7284 -22.2568,11.4264 -28.545,13.4735 -6.4146,2.0882 -18.8083,4.9612 -25.2512,5.8533 -12.4516,1.7241 -45.2108,3.9331 -79.5086,-13.0253 z"
       id="path25"
       sodipodi:nodetypes="sssssssssssssssss"
       inkscape:label="a_hole_background" /><circle
       style="fill:#000000;fill-opacity:1;stroke:#2fb9f0;stroke-width:15.3;stroke-linejoin:round;stroke-dasharray:none;stroke-opacity:1"
       id="path26"
       cx="1927"
       cy="1540.9706"
       r="18.320591"
       inkscape:label="a_hole_button" /><circle
       style="fill:#ffffff;fill-opacity:1;stroke:none;stroke-width:14;stroke-linejoin:round;stroke-dasharray:none;stroke-opacity:1"
       id="path27"
       cx="1828"
       cy="1541"
       r="40"
       inkscape:label="a_hole_center" /><path
       style="fill:#ffffff;fill-opacity:1;stroke:#ffffff;stroke-width:14;stroke-linejoin:round;stroke-dasharray:none;stroke-opacity:1"
       d="m 1828,1485 v -52 z"
       id="path28"
       sodipodi:nodetypes="ccc"
       inkscape:label="a_hole_line_top" /><path
       style="fill:#ffffff;fill-opacity:1;stroke:#ffffff;stroke-width:14;stroke-linejoin:round;stroke-dasharray:none;stroke-opacity:1"
       d="m 1828,1485 v -52 z"
       id="path28-6"
       transform="rotate(-90,1828,1541)"
       sodipodi:nodetypes="ccc"
       inkscape:label="a_hole_line_left" /><path
       style="fill:#ffffff;fill-opacity:1;stroke:#ffffff;stroke-width:14;stroke-linejoin:round;stroke-dasharray:none;stroke-opacity:1"
       d="m 1829,1478 v -52 z"
       id="path28-3"
       transform="translate(-1,171)"
       sodipodi:nodetypes="ccc"
       inkscape:label="a_hole_line_bottom" /></g><g
     id="g53"
     inkscape:label="n"><path
       style="fill:none;fill-opacity:0.547556;stroke:#000000;stroke-width:24;stroke-linejoin:round;stroke-dasharray:none;stroke-opacity:1"
       d="m 2440,1415 c -60,0 -65,62.4122 -65,75 v 335 h -190 v -335 c 0,-40 0,-240 255,-240 m 0,165 c 60,0 65,62.4122 65,75 v 335 h 190 v -335 c 0,-40 0,-240 -255,-240"
       id="path20"
       sodipodi:nodetypes="cccccc"
       inkscape:path-effect="#path-effect20"
       inkscape:original-d="m 2440,1415 c -60,0 -65,62.4122 -65,75 v 335 h -190 v -335 c 0,-40 0,-240 255,-240"
       inkscape:label="n"
       transform="translate(-585.41956,-790.96836)" /><g
       id="g54"
       inkscape:label="n_joint"><path
         style="fill:#ffffff;fill-opacity:1;stroke:#000000;stroke-width:53;stroke-linecap:square;stroke-linejoin:bevel;stroke-dasharray:none;stroke-opacity:1"
         d="m 1854.5804,626.53164 v -165 0 z"
         id="path29-6"
         inkscape:label="n_joint_border" /><path
         style="fill:#ffffff;fill-opacity:1;stroke:#ffffff;stroke-width:5;stroke-linecap:square;stroke-linejoin:bevel;stroke-dasharray:none;stroke-opacity:1"
         d="m 1854.5804,639.03164 v -173.5 -26.5 z"
         id="path29-6-8"
         sodipodi:nodetypes="cccc"
         inkscape:label="n_joint_gap" /></g></g></svg>
